<svg width="173" height="34" viewBox="0 0 173 34" fill="none" xmlns="http://www.w3.org/2000/svg">
<g clip-path="url(#clip0_3_4334)">
<path d="M55.3703 15.415H50.0567C49.3343 15.415 48.7453 16.0059 48.7453 16.7306C48.7453 17.4553 49.3343 18.0462 50.0567 18.0462H54.3193V22.6263C52.9429 23.3608 51.3843 23.746 49.7931 23.746C48.4525 23.7689 47.1282 23.4424 45.9698 22.8058C44.9285 22.228 44.0695 21.3433 43.4903 20.2497C42.9143 19.1137 42.6215 17.8438 42.641 16.5641C42.6182 15.1963 42.9339 13.8611 43.5554 12.7022C44.115 11.6706 44.9806 10.8251 46.0576 10.2636C47.1639 9.68579 48.4037 9.39198 49.6532 9.41483C50.5968 9.41483 51.5047 9.53888 52.3474 9.78372C53.1544 10.0188 53.9679 10.3811 54.8432 10.8969C55.0319 11.0046 55.2727 11.0667 55.5102 11.0667H55.5818C55.9202 11.0667 56.2521 10.923 56.4897 10.6749C56.7305 10.4236 56.8574 10.0939 56.8443 9.75108C56.8443 9.48992 56.7825 9.26793 56.6524 9.059C56.5385 8.86313 56.3953 8.71623 56.2098 8.61177C55.3085 8.02415 54.2705 7.53121 53.1251 7.14927C51.9342 6.77385 50.6749 6.59757 49.3766 6.62042C47.6846 6.59757 45.9893 7.02848 44.5022 7.87399C43.0705 8.67379 41.8731 9.89145 41.0368 11.3997C40.181 12.9731 39.7418 14.7719 39.7645 16.5902C39.7418 18.3367 40.1648 20.1094 40.988 21.7122C41.7494 23.1649 42.9631 24.4185 44.4079 25.2412C45.8494 26.054 47.4535 26.4784 49.0707 26.4784C49.1944 26.4784 49.3213 26.4784 49.4449 26.4719C51.6251 26.4719 53.7954 25.943 55.7152 24.9441C56.0471 24.7907 56.3367 24.536 56.5547 24.2063C56.7597 23.8733 56.8671 23.4849 56.8671 23.0833V16.9265C56.8671 16.1103 56.1805 15.4248 55.3703 15.4248V15.415Z" fill="#273344"/>
<path d="M69.3752 12.7316C68.3014 12.0689 67.0584 11.7326 65.8154 11.7587C64.3641 11.7359 63.1276 12.0819 62.1027 12.7838C61.107 13.4432 60.3325 14.3801 59.864 15.4933C59.3856 16.6229 59.1416 17.8405 59.1416 19.1137C59.1416 21.4152 59.7859 23.24 61.0582 24.5426C62.3077 25.8451 64.042 26.4915 66.3458 26.5143C66.4662 26.5208 66.5898 26.5208 66.7102 26.5208C68.2721 26.5208 69.8112 26.0965 71.1811 25.2836C71.718 24.9865 71.9913 24.5915 71.9913 24.1116C71.9913 23.7656 71.8416 23.4261 71.5976 23.2074C71.2071 22.845 70.6312 22.7569 70.1171 22.9886C69.5997 23.2596 69.053 23.4685 68.4966 23.6056C67.8881 23.7427 67.2211 23.8146 66.567 23.8146C65.2134 23.8146 64.1429 23.4751 63.388 22.8058C62.6819 22.179 62.2393 21.3107 62.0766 20.2171H71.116C71.8742 20.1877 72.4696 19.5446 72.4403 18.7905C72.4631 17.5761 72.2061 16.4009 71.6659 15.3007C71.1388 14.2169 70.3481 13.3322 69.3784 12.7381L69.3752 12.7316ZM69.5932 17.772H62.0571C62.1124 17.0995 62.3369 16.4303 62.6949 15.8688C63.0333 15.3269 63.5279 14.8861 64.0941 14.625C65.1874 14.0863 66.4401 14.0863 67.5334 14.625C68.1159 14.9188 68.6105 15.3497 68.9587 15.872C69.3166 16.4303 69.5411 17.0995 69.5964 17.772H69.5932Z" fill="#273344"/>
<path d="M82.7909 24.0137C82.5664 23.7885 82.28 23.6709 81.9644 23.6709C81.8603 23.6709 81.7269 23.6709 81.6195 23.697L81.3592 23.7493C81.0435 23.8537 80.7214 23.9027 80.3309 23.9027C79.9177 23.9256 79.5044 23.8342 79.1725 23.6448C78.9122 23.4946 78.7821 23.1029 78.7821 22.4794V14.4977H81.6162C81.9644 14.5271 82.3061 14.3867 82.5306 14.132C82.7649 13.897 82.895 13.5836 82.895 13.2539C82.895 12.5553 82.3288 11.9873 81.6325 11.9873H78.7821V10.022C78.7821 9.82616 78.7137 9.64335 78.5966 9.51603C78.4925 9.3626 78.2907 9.2712 78.0565 9.27446C77.7994 9.30711 77.5977 9.41157 77.4675 9.56827L73.8101 13.1658C73.6116 13.3322 73.501 13.5542 73.501 13.7958C73.501 14.1941 73.8264 14.5205 74.2233 14.5205H75.9479V22.7144C75.9479 25.215 77.3471 26.4817 80.1032 26.4817C80.9134 26.4817 81.6943 26.3087 82.42 25.9691C82.8657 25.7733 83.1553 25.3293 83.1553 24.8364C83.1553 24.5328 83.0284 24.2455 82.7909 24.0072V24.0137Z" fill="#273344"/>
<path d="M95.3641 7.98498C95.2046 7.64221 94.9736 7.33861 94.6905 7.10357C94.3846 6.87179 94.0169 6.75426 93.6037 6.75426H93.3596C92.9789 6.72815 92.595 6.84893 92.2533 7.10683C91.9735 7.33535 91.7425 7.63894 91.583 7.98825L84.7042 24.2912C84.5936 24.4838 84.535 24.7058 84.5383 24.9212C84.5123 25.3097 84.6489 25.6753 84.9255 25.9528C85.1793 26.2074 85.5307 26.3478 85.9114 26.3478C85.944 26.3478 85.9798 26.3478 86.0123 26.3446C86.2922 26.3446 86.5655 26.2597 86.8063 26.0965C87.0633 25.9234 87.2455 25.7015 87.3529 25.4403L89.0645 21.3433H97.9607L99.669 25.437C99.7764 25.7047 99.9586 25.9267 100.206 26.0899C100.421 26.2499 100.713 26.3446 101.01 26.3446C101.403 26.3446 101.755 26.2009 102.031 25.9234C102.279 25.6492 102.412 25.2901 102.412 24.8886C102.386 24.6731 102.331 24.4675 102.256 24.2912L95.3641 7.98498V7.98498ZM96.799 18.7154H90.1253L93.4638 10.6586L96.8023 18.7154H96.799Z" fill="#FF7900"/>
<path d="M111.051 14.4095C111.571 14.4095 112.069 14.4781 112.557 14.6119C113.14 14.8143 113.638 15.0265 114.057 15.2452C114.243 15.3791 114.487 15.4476 114.763 15.4476C115.102 15.4476 115.411 15.3073 115.613 15.0624C115.688 15.0037 115.736 14.9221 115.775 14.8568L115.808 14.8078C115.977 14.5303 116.029 14.2006 115.948 13.8774C115.863 13.5379 115.642 13.2408 115.339 13.0613C114.64 12.6304 113.996 12.3137 113.371 12.0983C112.57 11.8142 111.711 11.6837 110.833 11.7098C109.515 11.7098 108.239 12.0199 107.14 12.6075C106.023 13.1919 105.083 14.0831 104.426 15.1865C103.736 16.3552 103.384 17.7132 103.411 19.1104C103.384 20.5142 103.736 21.8722 104.426 23.0409C105.083 24.141 106.023 25.0322 107.14 25.6166C108.256 26.1911 109.476 26.4915 110.673 26.4915C110.719 26.4915 110.764 26.4915 110.807 26.4915C111.695 26.4915 112.548 26.3609 113.341 26.103C113.966 25.8875 114.61 25.5709 115.317 25.1367C115.391 25.0877 115.476 25.0322 115.561 24.9474C116.068 24.4381 116.078 23.6187 115.6 23.1421C115.398 22.8809 115.082 22.734 114.731 22.734C114.461 22.734 114.236 22.8287 114.048 22.9234C113.618 23.1486 113.14 23.3543 112.551 23.5697C112.053 23.7297 111.565 23.795 111.038 23.7721C109.544 23.7721 108.366 23.3412 107.54 22.4892C106.703 21.6274 106.28 20.4848 106.28 19.0941C106.28 17.7034 106.703 16.5608 107.54 15.699C108.366 14.847 109.541 14.4161 111.038 14.4161L111.051 14.4095Z" fill="#FF7900"/>
<path d="M125.206 14.4095C125.727 14.4095 126.221 14.4781 126.713 14.6119C127.295 14.8143 127.793 15.0265 128.213 15.2452C128.398 15.3791 128.642 15.4476 128.919 15.4476C129.257 15.4476 129.566 15.3073 129.768 15.0624C129.843 15.0037 129.892 14.9221 129.931 14.8568L129.963 14.8078C130.132 14.5303 130.184 14.2006 130.103 13.8807C130.019 13.5412 129.797 13.2441 129.495 13.0646C128.795 12.6336 128.151 12.317 127.526 12.1015C126.726 11.8175 125.867 11.6869 124.988 11.713C123.67 11.713 122.395 12.0232 121.295 12.6108C120.179 13.1951 119.238 14.0863 118.581 15.1897C117.891 16.3584 117.54 17.7165 117.566 19.1137C117.54 20.5174 117.891 21.8755 118.581 23.0441C119.238 24.1443 120.179 25.0355 121.295 25.6198C122.411 26.1944 123.631 26.4947 124.829 26.4947C124.874 26.4947 124.92 26.4947 124.962 26.4947C125.85 26.4947 126.703 26.3641 127.497 26.1063C128.121 25.8908 128.766 25.5741 129.472 25.14C129.547 25.091 129.631 25.0355 129.716 24.9506C129.96 24.7058 130.097 24.3826 130.106 24.0431C130.113 23.697 129.983 23.3706 129.758 23.1453C129.556 22.8842 129.241 22.7373 128.889 22.7373C128.619 22.7373 128.395 22.832 128.206 22.9266C127.777 23.1519 127.298 23.3575 126.709 23.573C126.211 23.733 125.72 23.7982 125.196 23.7754C123.703 23.7754 122.525 23.3445 121.698 22.4924C120.862 21.6306 120.439 20.488 120.439 19.0974C120.439 17.7067 120.849 16.551 121.698 15.7023C122.525 14.8502 123.703 14.4193 125.196 14.4193L125.206 14.4095Z" fill="#FF7900"/>
<path d="M141.96 12.7316C140.886 12.0689 139.637 11.7326 138.4 11.7588C136.956 11.7359 135.713 12.0819 134.688 12.7838C133.692 13.4432 132.917 14.3802 132.449 15.4933C131.971 16.6229 131.727 17.8405 131.727 19.1137C131.727 21.4152 132.371 23.24 133.643 24.5426C134.893 25.8418 136.666 26.5143 138.908 26.5404C139.028 26.547 139.152 26.547 139.272 26.547C140.834 26.547 142.373 26.1226 143.743 25.3097C144.28 25.0126 144.553 24.6176 144.553 24.1378C144.553 23.7917 144.404 23.4522 144.163 23.2368C143.922 22.9984 143.613 22.8711 143.265 22.8711C143.073 22.8711 142.855 22.9234 142.676 23.0115C142.159 23.2825 141.612 23.4914 141.056 23.6285C140.447 23.7656 139.78 23.8374 139.126 23.8374C137.772 23.8374 136.702 23.4979 135.947 22.8287C135.241 22.2019 134.798 21.3335 134.636 20.2399H143.698C144.456 20.2106 145.051 19.5675 145.022 18.8134C145.045 17.599 144.788 16.4237 144.251 15.3236C143.74 14.2463 142.969 13.3779 141.963 12.7348L141.96 12.7316ZM142.178 17.772H134.642C134.697 17.0995 134.922 16.4303 135.28 15.8688C135.618 15.3269 136.113 14.8861 136.679 14.625C137.772 14.0863 139.025 14.0863 140.118 14.625C140.701 14.9188 141.195 15.3497 141.544 15.872C141.902 16.4303 142.126 17.0995 142.181 17.772H142.178Z" fill="#FF7900"/>
<path d="M158.246 12.6108C157.227 12.0395 156.095 11.7359 154.972 11.7359C153.323 11.7359 151.842 12.33 150.567 13.5053V13.2996C150.593 12.9177 150.433 12.5194 150.153 12.268C149.883 11.9971 149.532 11.8534 149.109 11.8534C148.325 11.8795 147.713 12.5096 147.713 13.2865V31.1434C147.713 31.5384 147.856 31.891 148.126 32.1619C148.396 32.4296 148.741 32.5961 149.119 32.6222H149.219C149.991 32.5961 150.596 31.9367 150.57 31.1662V24.7482C151.826 25.9202 153.303 26.5143 154.972 26.5143C156.141 26.5143 157.273 26.2107 158.249 25.6362C159.3 25.0224 160.162 24.1312 160.748 23.0572C161.405 21.8624 161.737 20.5076 161.714 19.1398C161.737 17.7752 161.405 16.4107 160.748 15.193C160.153 14.0961 159.287 13.2049 158.246 12.6108V12.6108ZM150.589 21.8885V16.3617C151.087 15.81 151.699 15.3464 152.408 14.9776C153.072 14.6217 153.843 14.4356 154.64 14.4356C155.919 14.4356 156.925 14.8307 157.715 15.6468C158.5 16.4564 158.88 17.5892 158.88 19.1137C158.88 20.6382 158.5 21.771 157.715 22.5806C156.931 23.3902 155.926 23.7917 154.64 23.8146C153.866 23.8146 153.092 23.6252 152.405 23.2727C151.699 22.907 151.087 22.4402 150.586 21.8918L150.589 21.8885Z" fill="#FF7900"/>
<path d="M172.167 24.0398C171.942 23.8146 171.656 23.697 171.34 23.697C171.236 23.697 171.103 23.697 170.995 23.7232L170.735 23.7787C170.419 23.8831 170.097 23.9321 169.707 23.9321C169.31 23.9549 168.906 23.8635 168.574 23.6742C168.314 23.524 168.184 23.1323 168.184 22.5088V14.5271H171.018C171.366 14.5564 171.708 14.4161 171.932 14.1614C172.173 13.9199 172.297 13.6097 172.297 13.2604V13.1821C172.267 12.4998 171.711 11.9677 171.034 11.9938H168.184V10.0286C168.184 9.83269 168.115 9.64988 167.998 9.52256C167.894 9.36913 167.712 9.27773 167.458 9.28099C167.201 9.31364 166.999 9.4181 166.869 9.5748L163.189 13.1723C162.991 13.3388 162.88 13.5608 162.88 13.8023C162.88 14.2006 163.205 14.5271 163.602 14.5271H165.327V22.721C165.327 25.2118 166.723 26.4882 169.482 26.5111C170.292 26.5111 171.073 26.338 171.799 25.9985C172.245 25.8027 172.534 25.3587 172.534 24.8657C172.534 24.5621 172.407 24.2749 172.17 24.0366L172.167 24.0398Z" fill="#FF7900"/>
<path d="M30.8585 7.13947L33.3803 3.53546C33.6536 3.14698 33.7837 2.69975 33.7837 2.25904C33.7837 1.55717 33.4551 0.868359 32.8401 0.434179C31.8379 -0.270954 30.4517 -0.0293805 29.7489 0.979352L27.7868 3.78683C24.9298 1.42006 21.2724 0 17.2799 0C8.16242 0 0.769531 7.41696 0.769531 16.5641C0.769531 25.7112 8.16242 33.1282 17.2799 33.1282C26.3974 33.1282 33.7902 25.7112 33.7902 16.5641C33.7902 13.0613 32.7067 9.81637 30.8585 7.13947Z" fill="#FF7900"/>
<path d="M11.3061 13.502C10.4406 12.6304 9.03488 12.6304 8.16934 13.4987C7.73331 13.9329 7.51855 14.5042 7.51855 15.0755C7.51855 15.6435 7.73331 16.2115 8.16608 16.6457L15.7184 24.2422C16.1349 24.6633 16.7011 24.8951 17.2901 24.8951C17.3551 24.8951 17.417 24.8951 17.482 24.8853C18.1361 24.8298 18.7315 24.4838 19.1057 23.9451L30.8589 7.13947C29.9901 5.88264 28.9553 4.75312 27.7839 3.78356L16.9907 19.2214L11.3061 13.502Z" fill="white"/>
</g>
<defs>
<clipPath id="clip0_3_4334">
<rect width="171.761" height="33.1282" fill="white" transform="translate(0.769531)"/>
</clipPath>
</defs>
</svg>
